<svg width="64" height="55" viewBox="0 0 64 55" fill="none" xmlns="http://www.w3.org/2000/svg">
<path fill-rule="evenodd" clip-rule="evenodd" d="M53.9798 1.83517C55.0771 0.663837 56.5584 0.00461462 58.1034 2.41349e-05C59.6484 -0.00456635 61.133 0.645844 62.2363 1.81064C63.3396 2.97544 63.9728 4.56104 63.9991 6.22462C64.0255 7.88821 63.4428 9.49612 62.377 10.7007L31.0776 52.8332C30.5397 53.4572 29.8904 53.9579 29.1687 54.3055C28.4469 54.653 27.6675 54.8403 26.877 54.8561C26.0866 54.8718 25.3012 54.7158 24.568 54.3972C23.8348 54.0787 23.1688 53.6042 22.6098 53.0021L1.8716 30.6609C1.29386 30.0812 0.830465 29.382 0.509066 28.6053C0.187667 27.8285 0.0148461 26.9899 0.000915146 26.1397C-0.0130158 25.2894 0.132229 24.4448 0.427982 23.6563C0.723735 22.8678 1.16394 22.1515 1.72233 21.5502C2.28072 20.9488 2.94587 20.4748 3.67808 20.1563C4.41029 19.8378 5.19458 19.6814 5.98414 19.6964C6.7737 19.7114 7.55237 19.8975 8.2737 20.2436C8.99502 20.5897 9.64422 21.0887 10.1826 21.7109L26.6006 39.3829L53.8308 2.02093C53.8794 1.95553 53.9318 1.89348 53.9876 1.83517H53.9798Z" fill="black"/>
</svg>
