<svg width="56" height="56" viewBox="0 0 56 56" fill="none" xmlns="http://www.w3.org/2000/svg">
<path d="M44.2549 2.03068C38.8393 7.44954 33.4141 12.8693 28.0042 18.2892C22.5847 12.8722 17.1653 7.45238 11.744 2.03068C5.47313 -4.23666 -4.24318 5.48335 2.02482 11.7507C7.44236 17.1648 12.8646 22.5875 18.2755 27.9997C12.8609 33.4167 7.43952 38.8384 2.02482 44.2582C-4.24318 50.5236 5.47787 60.2408 11.744 53.9772C17.1615 48.5574 22.5809 43.1386 28.0042 37.7188C33.4236 43.1386 38.8393 48.5555 44.2549 53.9772C50.5238 60.2417 60.2411 50.5236 53.9778 44.2591C48.5574 38.8393 43.138 33.4223 37.7176 28.0006C43.139 22.5818 48.5584 17.162 53.9778 11.7422C60.2411 5.47672 50.5238 -4.24329 44.2549 2.02404" fill="black"/>
</svg>
