<svg width="41" height="37" viewBox="0 0 41 37" fill="none" xmlns="http://www.w3.org/2000/svg">
<path d="M38.5705 4.08732L35.9401 2.99737V20.5729L40.7103 9.16728C41.5151 7.18201 40.5925 4.90479 38.5705 4.08732V4.08732ZM0.291218 11.2888L10.0279 34.5476C10.3146 35.2553 10.8037 35.8644 11.4349 36.3001C12.0662 36.7358 12.8121 36.9791 13.581 37C14.0914 37 14.6214 36.9027 15.1318 36.6886L29.5994 30.7522C31.0717 30.1489 31.9747 28.7086 32.014 27.2683C32.0336 26.7622 31.9355 26.1978 31.7588 25.6917L21.9436 2.43293C21.6661 1.72061 21.1788 1.10759 20.5451 0.673662C19.9114 0.239736 19.1606 0.0049977 18.3905 0C17.8801 0 17.3697 0.116781 16.8789 0.291952L2.43093 6.2283C1.47054 6.61824 0.705639 7.37037 0.304395 8.31932C-0.0968486 9.26828 -0.101588 10.3364 0.291218 11.2888V11.2888ZM31.9944 3.89269C31.9944 2.86028 31.5807 1.87016 30.8444 1.14014C30.1081 0.410121 29.1095 0 28.0683 0H25.2219L31.9944 16.2325" fill="black"/>
</svg>
